<?xml version="1.0" standalone="no"?>
<!DOCTYPE svg PUBLIC "-//W3C//DTD SVG 20010904//EN"
 "http://www.w3.org/TR/2001/REC-SVG-20010904/DTD/svg10.dtd">
<svg version="1.0" xmlns="http://www.w3.org/2000/svg"
 width="500.000000pt" height="500.000000pt" viewBox="0 0 500.000000 500.000000"
 preserveAspectRatio="xMidYMid meet">

<g transform="translate(0.000000,500.000000) scale(0.100000,-0.100000)"
fill="#000000" stroke="none">
<path d="M2516 3861 c-14 -5 -16 -10 -8 -15 7 -4 9 -13 5 -19 -11 -17 -11 -57
-1 -63 4 -3 5 -11 1 -17 -11 -17 -11 -57 -1 -63 4 -3 5 -11 1 -17 -11 -18 -11
-50 1 -66 9 -12 8 -13 -3 -6 -10 5 -12 4 -7 -3 5 -8 53 -12 149 -12 164 0 243
-16 297 -59 52 -42 72 -83 78 -160 5 -81 -22 -155 -75 -201 l-34 -31 29 -47
c16 -26 45 -73 66 -104 l37 -58 -100 0 -100 0 -48 90 -48 90 -57 0 -58 0 0
-90 0 -90 -69 0 c-69 0 -78 -5 -58 -37 4 -6 3 -14 -1 -17 -10 -6 -10 -46 1
-63 4 -6 3 -14 -1 -17 -10 -6 -10 -46 1 -63 4 -6 3 -14 -1 -17 -10 -6 -10 -46
1 -63 4 -6 3 -14 -1 -17 -10 -6 -10 -46 1 -63 4 -6 3 -14 -1 -17 -10 -6 -10
-46 1 -63 4 -6 3 -14 -1 -17 -10 -6 -10 -46 1 -63 4 -6 3 -14 -1 -17 -10 -6
-10 -46 1 -63 4 -6 3 -14 -1 -17 -10 -6 -10 -52 1 -62 4 -4 2 -13 -4 -20 -9
-10 -7 -15 5 -20 9 -3 16 -17 16 -30 0 -19 5 -24 25 -24 20 0 25 5 25 25 0 16
6 25 15 25 12 0 15 -13 15 -60 0 -47 -3 -60 -15 -60 -9 0 -15 9 -15 25 0 20
-5 25 -24 25 -19 0 -25 -6 -28 -27 -2 -16 -8 -27 -14 -26 -12 2 -13 -55 -1
-74 4 -6 3 -14 -1 -17 -10 -6 -10 -46 1 -63 4 -6 3 -14 -1 -17 -10 -6 -10 -46
1 -63 4 -6 3 -14 -1 -17 -10 -6 -10 -46 1 -63 4 -6 3 -14 -1 -17 -10 -6 -10
-46 1 -63 4 -6 3 -14 -1 -17 -10 -6 -10 -46 1 -63 4 -6 3 -14 -1 -17 -10 -6
-10 -46 1 -63 4 -6 3 -14 -1 -17 -10 -6 -10 -46 1 -63 4 -6 3 -14 -1 -17 -10
-6 -10 -46 1 -63 4 -6 3 -14 -1 -17 -10 -6 -10 -46 1 -63 4 -6 3 -14 -2 -17
-5 -4 -8 -14 -7 -24 3 -16 47 -17 724 -20 l722 -2 0 1325 0 1325 -707 -1
c-390 0 -717 -4 -727 -8z m1048 -304 c37 -14 73 -30 78 -35 7 -7 0 -32 -20
-76 -17 -36 -33 -66 -35 -66 -3 0 -31 12 -63 26 -69 31 -175 44 -199 24 -20
-17 -19 -43 3 -64 11 -9 65 -31 121 -50 157 -52 201 -96 201 -201 0 -82 -37
-138 -120 -181 -56 -28 -192 -31 -277 -6 -71 22 -163 74 -163 92 0 6 14 38 31
71 30 59 31 60 52 44 44 -32 145 -74 193 -80 61 -7 98 10 102 47 4 35 -20 51
-139 88 -159 50 -199 88 -199 193 0 65 14 98 59 141 74 70 234 85 375 33z
m-142 -1406 l3 -149 54 126 c30 70 58 131 62 136 8 9 69 -11 69 -23 0 -4 -25
-65 -55 -135 -30 -70 -55 -130 -55 -134 0 -4 49 42 108 101 l108 108 23 -25
24 -25 -107 -115 -107 -115 144 58 145 59 11 -25 c6 -13 11 -30 11 -37 0 -7
-60 -36 -137 -67 l-138 -54 153 -3 152 -3 0 -33 0 -33 -187 -6 c-104 -4 -333
-7 -510 -7 l-323 0 0 40 0 39 156 3 156 3 -93 39 c-52 22 -118 50 -147 63
l-53 23 17 32 c9 18 18 34 19 36 1 2 65 -24 141 -58 l139 -61 -108 108 -107
108 27 28 28 27 113 -112 112 -113 -59 148 -60 148 34 15 c19 8 36 14 38 14 2
0 28 -62 58 -137 l54 -138 3 148 3 147 39 0 39 0 3 -149z m-672 39 c0 -5 -7
-11 -15 -11 -8 -1 -20 -2 -27 -3 -25 -2 -19 -26 6 -26 14 0 26 -4 26 -10 0 -5
-11 -10 -25 -10 -16 0 -25 -6 -25 -15 0 -10 10 -15 30 -15 17 0 30 -4 30 -10
0 -5 -20 -10 -45 -10 l-45 0 0 60 0 60 45 0 c25 0 45 -4 45 -10z"/>
<path d="M2640 3334 l0 -96 86 3 c79 4 87 6 110 32 33 39 33 99 -1 132 -22 23
-32 25 -110 25 l-85 0 0 -96z"/>
</g>
</svg>
